<?xml version="1.0" standalone="no"?>
<!DOCTYPE svg PUBLIC "-//W3C//DTD SVG 20010904//EN"
 "http://www.w3.org/TR/2001/REC-SVG-20010904/DTD/svg10.dtd">
<svg version="1.0" xmlns="http://www.w3.org/2000/svg"
 width="452.000000pt" height="452.000000pt" viewBox="0 0 452.000000 452.000000"
 preserveAspectRatio="xMidYMid meet">
<metadata>
Created by potrace 1.11, written by Peter Selinger 2001-2013
</metadata>
<g transform="translate(0.000000,452.000000) scale(0.100000,-0.100000)"
fill="#000000" stroke="none">
<path d="M5 2263 l0 -2258 2255 0 2255 0 3 2258 2 2257 -2257 0 -2258 0 0
-2257z m4272 2013 c3 -3 6 -550 6 -1214 0 -1168 -1 -1210 -19 -1241 -25 -43
-68 -68 -128 -75 -105 -12 -183 39 -206 136 -8 32 -12 155 -12 358 0 257 -3
310 -14 311 -37 4 -200 5 -209 2 -15 -5 -11 -662 4 -726 22 -95 82 -176 171
-232 83 -53 217 -72 340 -49 36 7 67 10 69 8 6 -5 5 -1294 -1 -1300 -4 -4
-3479 -8 -3973 -4 l-60 0 2 2011 c1 1312 5 2014 11 2018 13 8 4011 5 4019 -3z"/>
<path d="M3305 3296 c-63 -16 -102 -36 -140 -73 -78 -77 -88 -129 -88 -454 l0
-215 -41 0 -40 1 -1 -103 c-1 -57 3 -106 8 -109 6 -3 24 -6 41 -7 l31 -1 2
-370 c1 -203 2 -378 2 -387 1 -15 14 -17 116 -15 l115 1 0 331 c-1 181 -1 355
0 386 l0 57 98 0 c53 0 109 0 124 1 l26 1 -1 108 -2 107 -122 0 -123 0 -1 75
c-1 216 3 349 11 381 23 83 80 92 222 34 15 -6 17 4 17 108 l-1 115 -26 10
c-56 21 -69 24 -122 27 -30 1 -77 -3 -105 -9z"/>
<path d="M1249 2905 c-1 -5 -3 -82 -4 -170 -1 -88 -3 -165 -4 -171 0 -6 -16
-10 -33 -9 -63 3 -63 4 -61 -108 2 -111 5 -117 68 -110 l30 3 0 -373 c-1 -204
1 -380 3 -389 4 -15 17 -17 116 -15 l111 2 0 385 0 385 79 2 c43 1 83 4 90 6
10 4 11 31 7 182 l-1 31 -81 -1 c-46 -1 -83 3 -87 10 -4 5 -7 80 -8 165 -1 85
-2 162 -3 170 -1 12 -21 15 -111 15 -69 1 -110 -3 -111 -10z"/>
<path d="M2225 2575 c-171 -26 -294 -107 -380 -250 -45 -76 -65 -143 -69 -236
-13 -324 223 -563 545 -553 237 7 435 164 494 390 19 74 19 181 0 262 -48 205
-229 365 -437 388 -29 3 -57 7 -63 8 -5 1 -46 -3 -90 -9z m200 -229 c157 -73
217 -284 130 -456 -47 -93 -127 -140 -241 -145 -183 -6 -295 109 -300 310 -4
154 73 272 201 305 64 17 158 11 210 -14z"/>
</g>
</svg>
