<?xml version="1.0" encoding="utf-8"?>
<!-- Generator: Adobe Illustrator 18.0.0, SVG Export Plug-In . SVG Version: 6.00 Build 0)  -->
<!DOCTYPE svg PUBLIC "-//W3C//DTD SVG 1.1//EN" "http://www.w3.org/Graphics/SVG/1.1/DTD/svg11.dtd">
<svg version="1.1" id="Layer_1" xmlns="http://www.w3.org/2000/svg" xmlns:xlink="http://www.w3.org/1999/xlink" x="0px" y="0px"
	 viewBox="0 0 792 222.5" enable-background="new 0 0 792 222.5" xml:space="preserve">
<path fill="#00AEEF" d="M211.3,11.1v200.2H11.1V11.1L211.3,11.1 M222.5,0H0v222.5h222.5V0L222.5,0z"/>
<g>
	<polygon fill="#00AEEF" points="114.2,41.5 95.8,41.5 29.8,180.8 48.2,180.8 63.6,148.5 104.7,148.5 104.7,131.8 71.4,131.8 	"/>
	<polygon fill="#00AEEF" points="131.6,111.2 186.1,41.5 165,41.5 110.5,111.2 165,180.8 186.1,180.8 	"/>
</g>
<g>
	<path d="M294,30.4h6.9L327,92h-8.5l-6.3-15h-30.8l-6.3,15H267L294,30.4z M297.2,39.7L297.2,39.7l-13,30.2h25L297.2,39.7z"/>
	<path d="M333.7,26.1h6.9v65.6h-6.9V26.1z"/>
	<path d="M352.4,26.1h6.9v31h0.2c1.9-2.2,4.1-3.9,6.5-5.2c2.4-1.3,5.2-1.9,8.2-1.9c3.2,0,6.1,0.6,8.7,1.7c2.6,1.1,4.8,2.6,6.7,4.4
		s3.3,4.1,4.3,6.9c1.1,2.6,1.5,5.4,1.5,8.5c0,3.2-0.6,5.9-1.5,8.5c-1.1,2.6-2.4,4.8-4.3,6.9s-3.9,3.3-6.5,4.4
		c-2.4,1.1-5.2,1.7-8,1.7c-3.7,0-6.9-0.7-9.6-2.4c-2.8-1.7-4.8-3.5-6.1-5.9h-0.2V92h-6.9L352.4,26.1L352.4,26.1z M359.1,71.6
		c0,2.2,0.4,4.1,0.9,5.9c0.7,1.9,1.7,3.3,3,4.8c1.3,1.3,2.8,2.4,4.6,3.2c1.9,0.7,3.7,1.1,5.9,1.1c2.2,0,4.3-0.4,5.9-1.1
		c1.9-0.7,3.3-1.9,4.6-3.2c1.3-1.3,2.2-3,3-4.8c0.7-1.9,0.9-3.9,0.9-5.9c0-2.2-0.4-4.1-0.9-5.9c-0.7-1.9-1.7-3.3-3-4.8
		c-1.3-1.3-2.8-2.4-4.6-3.2c-1.9-0.7-3.7-1.1-5.9-1.1c-2.2,0-4.3,0.4-5.9,1.1c-1.9,0.7-3.3,1.9-4.6,3.2c-1.3,1.3-2.2,3-3,4.8
		C359.5,67.5,359.1,69.3,359.1,71.6z"/>
	<path d="M403.8,60.8c0-1.9,0-3.5-0.2-5.2c-0.2-1.7-0.2-3.2-0.2-4.4h6.5c0,1.1,0,2.2,0,3.3c0,1.1,0,2.2,0,3.3h0.2
		c0.4-0.9,1.1-1.9,2-2.8c0.9-0.9,1.9-1.7,3-2.4s2.4-1.3,3.9-1.7c1.5-0.4,3-0.7,4.6-0.7c0.4,0,0.9,0,1.3,0s0.9,0.2,1.3,0.4l-0.4,6.9
		c-1.1-0.4-2.4-0.6-3.7-0.6c-4.1,0-7.2,1.3-9.1,4.1c-1.9,2.8-2.8,6.3-2.8,11.1V92h-6.9V60.8L403.8,60.8L403.8,60.8z"/>
	<path d="M432.2,35.4c0-1.3,0.6-2.4,1.5-3.5c0.9-0.9,2-1.5,3.5-1.5c1.3,0,2.6,0.6,3.5,1.5c0.9,0.9,1.5,2.2,1.5,3.5
		c0,1.5-0.4,2.6-1.3,3.5c-0.9,0.9-2,1.3-3.5,1.3s-2.6-0.4-3.5-1.3C432.7,38,432.2,36.7,432.2,35.4z M433.8,51.2h6.9v40.6h-6.9V51.2z
		"/>
	<path d="M493,90.1c0,7.4-1.9,13-5.7,16.9c-3.7,3.9-9.3,5.7-16.5,5.7c-4.1,0-7.6-0.6-10.8-1.7c-3.2-1.1-6.3-3.2-9.1-5.9l4.8-5.6
		c2.2,2.2,4.4,4.1,6.9,5.2c2.4,1.1,5.2,1.9,8.3,1.9c3,0,5.6-0.4,7.6-1.3s3.5-2,4.8-3.7c1.1-1.5,2-3.3,2.4-5.2c0.4-2,0.7-4.1,0.7-6.1
		v-5.2h-0.2c-1.7,2.6-3.7,4.4-6.3,5.7s-5.2,1.9-8,1.9c-3.2,0-6.1-0.6-8.7-1.5c-2.6-1.1-5-2.4-6.9-4.3c-1.9-1.9-3.3-4.1-4.4-6.7
		c-1.1-2.6-1.5-5.4-1.5-8.3c0-3.3,0.6-6.3,1.5-8.9c1.1-2.6,2.6-4.8,4.4-6.7c1.9-1.9,4.1-3.2,6.9-4.3c2.6-0.9,5.6-1.5,8.9-1.5
		c1.3,0,2.8,0.2,4.1,0.6c1.3,0.4,2.8,0.7,4.1,1.5c1.3,0.7,2.4,1.5,3.5,2.6c1.1,0.9,1.9,2.2,2.6,3.5h0.2v-6.9h6.9v38.2L493,90.1
		L493,90.1z M457.4,71.6c0,2,0.4,4.1,1.1,5.7c0.7,1.9,1.9,3.3,3.2,4.6c1.3,1.3,2.8,2.4,4.6,3.2c1.7,0.7,3.5,1.1,5.6,1.1
		c2.2,0,4.4-0.4,6.1-1.3c1.9-0.7,3.3-1.9,4.6-3.3c1.3-1.3,2.2-3,2.8-4.6c0.6-1.9,0.9-3.7,0.9-5.6c0-2.2-0.4-4.3-1.1-6.1
		c-0.7-1.9-1.7-3.3-3-4.8c-1.3-1.3-2.8-2.4-4.6-3.2c-1.9-0.7-3.7-1.1-5.9-1.1c-2.2,0-4.1,0.4-5.9,1.1c-1.9,0.7-3.3,1.9-4.4,3.2
		c-1.3,1.3-2.2,3-3,4.8C457.7,67.5,457.4,69.3,457.4,71.6z"/>
	<path d="M504.5,26.1h6.9v30.6h0.2c0.4-0.7,1.1-1.7,1.9-2.4c0.7-0.7,1.9-1.5,3-2c1.1-0.6,2.4-1.1,3.7-1.5c1.3-0.4,2.8-0.6,4.4-0.6
		c2.6,0,5,0.4,6.9,1.3c1.9,0.7,3.5,1.9,4.8,3.3c1.3,1.5,2.2,3.2,2.8,5.2c0.6,2,0.9,4.3,0.9,6.7v25H533V67.3c0-3.3-0.7-6.1-2.2-8.2
		s-3.9-3-7-3c-2.2,0-4.1,0.4-5.7,1.1c-1.7,0.7-3,1.9-3.9,3.2s-1.9,3-2.2,5c-0.6,1.9-0.7,4.1-0.7,6.3v19.8h-6.9V26.1L504.5,26.1
		L504.5,26.1z"/>
	<path d="M573.4,56.9h-12.1v20.4c0,1.3,0,2.6,0,3.7s0.4,2,0.7,3c0.4,0.9,0.9,1.5,1.9,2c0.7,0.6,2,0.7,3.5,0.7c0.9,0,2-0.2,3-0.4
		c1.1-0.2,2-0.6,3-1.1l0.2,6.1c-1.1,0.6-2.4,0.9-3.9,1.1s-2.8,0.4-4.1,0.4c-2.4,0-4.4-0.4-5.7-0.9c-1.5-0.6-2.6-1.5-3.3-2.8
		c-0.7-1.1-1.3-2.6-1.7-4.3c-0.2-1.7-0.4-3.5-0.4-5.7V56.9h-8.9v-5.7h8.9V39.7h6.9v11.5h12.1V56.9z"/>
	<path d="M575.1,67.9h21.3v6.3h-21.3V67.9z"/>
	<path d="M605.1,30.4h7.2v26.5h1.1l28-26.5H652l-30.4,28l31.9,33.4h-10.8l-29.3-31.3h-1.1v31.3h-7.2V30.4z"/>
	<path d="M659.3,60.8c0-1.9,0-3.5-0.2-5.2c-0.2-1.7-0.2-3.2-0.2-4.4h6.5c0,1.1,0,2.2,0,3.3c0,1.1,0,2.2,0,3.3h0.2
		c0.4-0.9,1.1-1.9,2-2.8c0.9-0.9,1.9-1.7,3-2.4c1.1-0.7,2.4-1.3,3.9-1.7c1.5-0.4,3-0.7,4.6-0.7c2.6,0,5,0.4,6.9,1.3
		c1.9,0.7,3.5,1.9,4.8,3.3c1.3,1.5,2.2,3.2,2.8,5.2c0.6,2,0.9,4.3,0.9,6.7v25h-6.9V67.3c0-3.3-0.7-6.1-2.2-8.2c-1.5-2-3.9-3-7-3
		c-2.2,0-4.1,0.4-5.7,1.1c-1.7,0.7-3,1.9-3.9,3.2c-0.9,1.3-1.9,3-2.2,5c-0.6,1.9-0.7,4.1-0.7,6.3v19.8h-6.9V60.8L659.3,60.8
		L659.3,60.8z"/>
	<path d="M703.9,71.6c0-3.2,0.6-6.1,1.7-8.7c1.1-2.6,2.6-4.8,4.4-6.7c1.9-1.9,4.3-3.3,6.9-4.4c2.6-1.1,5.6-1.5,8.7-1.5
		c3.2,0,5.9,0.6,8.7,1.5c2.6,1.1,5,2.6,6.9,4.4c1.9,1.9,3.3,4.1,4.4,6.7c1.1,2.6,1.7,5.6,1.7,8.7c0,3.2-0.6,6.1-1.7,8.7
		c-1.1,2.6-2.6,4.8-4.4,6.7c-1.9,1.9-4.3,3.3-6.9,4.4c-2.6,1.1-5.6,1.5-8.7,1.5c-3.2,0-5.9-0.6-8.7-1.5c-2.6-1.1-5-2.4-6.9-4.4
		c-1.9-1.9-3.3-4.1-4.4-6.7C704.5,77.7,703.9,74.7,703.9,71.6z M711.2,71.6c0,2.2,0.4,4.1,0.9,5.9c0.7,1.9,1.7,3.3,3,4.8
		c1.3,1.3,2.8,2.4,4.6,3.2c1.9,0.7,3.7,1.1,5.9,1.1c2.2,0,4.3-0.4,5.9-1.1c1.9-0.7,3.3-1.9,4.6-3.2c1.3-1.3,2.2-3,3-4.8
		c0.7-1.9,0.9-3.9,0.9-5.9c0-2.2-0.4-4.1-0.9-5.9c-0.7-1.9-1.7-3.3-3-4.8c-1.3-1.3-2.8-2.4-4.6-3.2c-1.9-0.7-3.7-1.1-5.9-1.1
		c-2.2,0-4.3,0.4-5.9,1.1c-1.9,0.7-3.3,1.9-4.6,3.2c-1.3,1.3-2.2,3-3,4.8C711.5,67.5,711.2,69.3,711.2,71.6z"/>
	<path d="M765.9,69.9l-14.6-18.7h8.9l10.8,14.6l10.2-14.6h8.2l-13.9,18.7L792,91.8h-8.9l-12.8-17.6l-12.6,17.6h-8.3L765.9,69.9z"/>
</g>
<g>
	<path d="M294,125.5h6.9l26.1,61.6h-8.5l-6.3-15h-30.8l-6.3,15H267L294,125.5z M297.2,134.8L297.2,134.8l-13,30.2h25L297.2,134.8z"
		/>
	<path d="M333.5,155.9c0-1.9,0-3.5-0.2-5.2c-0.2-1.7-0.2-3.2-0.2-4.4h6.5c0,1.1,0,2.2,0,3.3c0,1.1,0,2.2,0,3.3h0.2
		c0.4-0.9,1.1-1.9,2-2.8s1.9-1.7,3-2.4s2.4-1.3,3.9-1.7c1.5-0.4,3-0.7,4.6-0.7c0.4,0,0.9,0,1.3,0c0.4,0,0.9,0.2,1.3,0.4l-0.4,6.9
		c-1.1-0.4-2.4-0.6-3.7-0.6c-4.1,0-7.2,1.3-9.1,4.1c-1.9,2.8-2.8,6.3-2.8,11.1v19.8h-6.9v-31.1L333.5,155.9L333.5,155.9z"/>
	<path d="M388.2,152h-12.1v20.4c0,1.3,0,2.6,0,3.7c0,1.1,0.4,2,0.7,3c0.4,0.9,0.9,1.5,1.9,2c0.7,0.6,2,0.7,3.5,0.7
		c0.9,0,2-0.2,3-0.4c1.1-0.2,2-0.6,3-1.1l0.2,6.1c-1.1,0.6-2.4,0.9-3.9,1.1c-1.5,0.2-2.8,0.4-4.1,0.4c-2.4,0-4.4-0.4-5.7-0.9
		c-1.5-0.6-2.6-1.5-3.3-2.8c-0.7-1.1-1.3-2.6-1.7-4.3s-0.4-3.5-0.4-5.7V152h-8.9v-5.7h8.9v-11.5h6.9v11.5h12.1V152z"/>
	<path d="M467.2,182.8c-3.5,2-7.2,3.3-11.1,4.3c-3.9,0.9-7.8,1.3-11.9,1.3c-4.8,0-9.3-0.7-13.2-2.4c-4.1-1.5-7.4-3.7-10.4-6.7
		c-3-2.8-5.2-6.3-6.9-10.2c-1.7-3.9-2.4-8.3-2.4-13.2s0.9-9.3,2.6-13.2c1.7-3.9,4.1-7.4,7-10.2c3-2.8,6.5-5,10.6-6.5s8.3-2.4,13-2.4
		c4.1,0,8,0.6,11.7,1.9s7,3.3,10,6.3l-5.6,5.7c-2-2.2-4.6-4.1-7.6-5.2c-3-1.3-6.1-1.9-9.1-1.9c-3.5,0-6.9,0.6-9.8,1.9
		c-3,1.3-5.6,3-7.8,5.4c-2.2,2.2-3.9,5-5.2,8.2c-1.3,3.2-1.9,6.5-1.9,10.2c0,3.7,0.6,7,1.9,10.2c1.3,3.2,3,5.7,5.2,8.2
		c2.2,2.2,4.8,4.1,8,5.4c3.2,1.3,6.5,1.9,10.4,1.9c2.4,0,5-0.4,7.8-0.9c2.8-0.6,5.2-1.5,7.4-2.6v-18.9h-14.1v-6.9h21.5L467.2,182.8
		L467.2,182.8z"/>
	<path d="M479.1,151.5c2-2.2,4.6-3.7,7.4-4.8c2.8-0.9,5.7-1.5,8.7-1.5c5.9,0,10.4,1.5,13,4.3c2.6,2.8,4.1,7.2,4.1,13v17.4
		c0,1.1,0,2.4,0.2,3.5c0.2,1.3,0.2,2.4,0.4,3.3h-6.5c-0.2-0.9-0.4-2-0.4-3.2s0-2,0-3h-0.2c-1.3,2-3.2,3.7-5.4,5.2
		c-2.2,1.3-4.8,2-8,2c-2,0-4.1-0.2-5.9-0.7c-1.9-0.6-3.3-1.3-4.8-2.2c-1.3-0.9-2.4-2.2-3.3-3.7c-0.7-1.5-1.3-3.2-1.3-5.2
		c0-3.3,0.9-5.9,2.6-8c1.7-1.9,3.9-3.3,6.5-4.3c2.6-0.9,5.4-1.5,8.3-1.7s5.7-0.4,8.2-0.4h2.6v-1.3c0-3-0.9-5.2-2.6-6.7
		c-1.9-1.5-4.3-2.2-7.4-2.2c-2.2,0-4.3,0.4-6.5,1.1c-2,0.7-3.9,1.9-5.6,3.3L479.1,151.5z M498.7,167.4c-4.3,0-7.8,0.6-10.4,1.9
		s-3.9,3.2-3.9,5.9c0,2.6,0.9,4.3,2.6,5.4c1.7,1.1,3.9,1.7,6.3,1.7c2,0,3.7-0.4,5.2-0.9c1.5-0.7,2.8-1.5,3.7-2.6
		c0.9-1.1,1.7-2.4,2.2-3.9c0.6-1.5,0.7-3,0.9-4.8v-2.6H498.7z"/>
	<path d="M523.9,121.2h6.9v65.6h-6.9V121.2z"/>
	<path d="M543,121.2h6.9v65.6H543V121.2z"/>
	<path d="M598.1,179.5c-2.4,3.2-5,5.4-8,6.5c-3,1.3-6.3,1.9-10,1.9c-3.2,0-6.1-0.6-8.5-1.7c-2.6-1.1-4.6-2.6-6.5-4.6
		c-1.9-1.9-3.2-4.1-4.1-6.9c-0.9-2.6-1.5-5.4-1.5-8.3c0-3.2,0.6-5.9,1.5-8.7c1.1-2.6,2.4-4.8,4.3-6.9c1.9-1.9,4.1-3.3,6.7-4.4
		c2.6-1.1,5.4-1.5,8.3-1.5c2.8,0,5.4,0.6,7.8,1.5c2.4,0.9,4.4,2.4,6.1,4.1c1.7,1.9,3,4.1,3.9,6.7c0.9,2.6,1.3,5.6,1.3,8.9v2.2h-32.8
		c0.2,1.7,0.6,3.3,1.3,5c0.7,1.7,1.7,3,2.8,4.1c1.1,1.1,2.6,2,4.1,2.8s3.3,1.1,5.2,1.1c3,0,5.4-0.6,7.4-1.5c2-1.1,3.9-2.6,5.6-4.6
		L598.1,179.5z M592.1,163c-0.2-3.5-1.3-6.3-3.3-8.3c-2.2-2-5-3.2-8.9-3.2c-3.7,0-6.9,1.1-9.1,3.2c-2.2,2-3.7,4.8-4.1,8.3H592.1z"/>
	<path d="M608.8,155.9c0-1.9,0-3.5-0.2-5.2c-0.2-1.7-0.2-3.2-0.2-4.4h6.5c0,1.1,0,2.2,0,3.3c0,1.1,0,2.2,0,3.3h0.2
		c0.4-0.9,1.1-1.9,2-2.8s1.9-1.7,3-2.4s2.4-1.3,3.9-1.7c1.5-0.4,3-0.7,4.6-0.7c0.4,0,0.9,0,1.3,0c0.4,0,0.9,0.2,1.3,0.4l-0.4,6.9
		c-1.1-0.4-2.4-0.6-3.7-0.6c-4.1,0-7.2,1.3-9.1,4.1c-1.9,2.8-2.8,6.3-2.8,11.1v19.8h-6.9v-31.1L608.8,155.9L608.8,155.9z"/>
	<path d="M656.3,196.1c-0.7,1.7-1.5,3.3-2,4.8c-0.7,1.5-1.7,2.6-2.6,3.7c-0.9,0.9-2.2,1.9-3.7,2.4c-1.5,0.6-3.2,0.7-5.2,0.7
		c-0.9,0-2,0-3.2-0.2c-1.1-0.2-2-0.4-3-0.9l0.9-5.9c0.7,0.4,1.5,0.6,2.2,0.6s1.7,0.2,2.6,0.2c2.2,0,3.9-0.6,4.8-1.9
		c1.1-1.3,1.9-2.8,2.8-4.8l2.8-7.6l-16.9-41h8l12.6,31.9h0.2l12.1-31.9h7.4L656.3,196.1z"/>
</g>
</svg>
